<svg xmlns="http://www.w3.org/2000/svg" viewBox="0 0 21 24.389"><defs><style>.a{fill:#fff;}</style></defs><g transform="translate(-11.5 -6.087)"><g transform="translate(19.873 27.577)"><path class="a" d="M43.863,88.191A2.131,2.131,0,0,1,42.4,86.132v-.7a.027.027,0,0,1,.027-.027h4.281v.759A2.171,2.171,0,0,1,43.863,88.191Z" transform="translate(-42.4 -85.4)"/></g><g transform="translate(11.5 6.087)"><path class="a" d="M31.117,27.09H12.909A1.4,1.4,0,0,1,11.5,25.681v-.244a1.391,1.391,0,0,1,.406-1l1.9-1.843V16.6a8.065,8.065,0,0,1,5.69-7.776c.027,0,.027-.027.027-.054V8.556a2.4,2.4,0,0,1,1.057-2.032,2.479,2.479,0,0,1,3.875,2.032v.217a8.089,8.089,0,0,1,5.744,7.8v6.015l1.9,1.87a1.391,1.391,0,0,1,.406,1v.244A1.354,1.354,0,0,1,31.117,27.09Z" transform="translate(-11.5 -6.087)"/></g></g></svg>