<svg xmlns="http://www.w3.org/2000/svg" viewBox="0 0 81.55 77.667"><defs><style>.a{fill:#fff;}</style></defs><path class="a" d="M40.776,0C18.29,0,0,17.419,0,38.833S18.29,77.667,40.778,77.667,81.55,60.248,81.55,38.833,63.26,0,40.776,0ZM29.631,31.45l.082-.085a.973.973,0,0,0,.434-.967c-.821-4.706-.282-6.668-.1-7.161,1.435-4.2,5.94-6.135,6.824-6.479a4.758,4.758,0,0,1,.889-.223l.105-.023.724-.037.006.043.168-.015a4.715,4.715,0,0,0,.471-.07l.16-.032a26.515,26.515,0,0,1,4.5.974l1.811.593a10.081,10.081,0,0,1,5.117,3.013c2.652,2.861,1.94,7.181,1.284,9.5a.933.933,0,0,0,.133.788l.15.176c.192.249.364,1.208-.211,3.244a2.605,2.605,0,0,1-.706,1.46.97.97,0,0,0-.257.511c-.9,5-5.6,10.6-10.566,10.6-4.211,0-9.017-5.15-9.881-10.6a.986.986,0,0,0-.27-.537,2.916,2.916,0,0,1-.728-1.625C29.347,33.078,29.305,31.929,29.631,31.45Zm-9.453,21.7a7.746,7.746,0,0,1,3.259-2.1c1.81-.53,6.285-1.946,8.731-3.634a1.53,1.53,0,0,0,.321-.264c.226-.232.572-.587.981-.948l.228-.207.232.208A10.423,10.423,0,0,0,40.646,49.2a10.878,10.878,0,0,0,6.818-2.725l.171-.139.462.213a8.251,8.251,0,0,0,1.459,1.005l.426.2-.045.044.189.109c.4.231.839.455,1.351.7.518.217.952.377,1.4.519a47.675,47.675,0,0,1,4.682,1.768L58,51.01a8.023,8.023,0,0,1,3.332,2.071c2.659,3.752,3.678,10.754,4.058,14.656a40.522,40.522,0,0,1-49.215,0C16.542,63.843,17.553,56.863,20.178,53.15Z"/></svg>